# xmcd
#
# Track frame offsets: 
#        150
#        19537
#        35665
#        50235
#        63625
#        80725
#        97180
#        111320
#        125375
#        142812
#        162337
#
# Disc length: 2390 seconds
#
# Revision: 7
# Processed by: cddbd v1.5.2PL0 Copyright (c) Steve Scherf et al.
# Submitted via: ExactAudioCopy v0.99pb5
#
DISCID=9d09540b
DTITLE=Jimmy Nail - Crocodile Shoes
DYEAR=1994
DGENRE=Soundtrack
TTITLE0=Crocodile Shoes
TTITLE1=Calling Out Your Name
TTITLE2=Cowboy Dreams
TTITLE3=Once Upon A Time
TTITLE4=Only One Heart
TTITLE5=Bitter And Twisted
TTITLE6=Love Will Find Someone For You
TTITLE7=Angel
TTITLE8=Between A Woman And A Man
TTITLE9=Don't Wanna Go Home
TTITLE10=Dragons
EXTD=
EXTT0=
EXTT1=
EXTT2=
EXTT3=
EXTT4=
EXTT5=
EXTT6=
EXTT7=
EXTT8=
EXTT9=
EXTT10=
PLAYORDER=
